<?xml version="1.0" encoding="utf-8"?>
<!-- Generator: Adobe Illustrator 26.0.3, SVG Export Plug-In . SVG Version: 6.00 Build 0)  -->
<svg version="1.1" id="Layer_1" xmlns="http://www.w3.org/2000/svg" xmlns:xlink="http://www.w3.org/1999/xlink" x="0px" y="0px"
	 viewBox="0 0 285 34" style="enable-background:new 0 0 285 34;" xml:space="preserve">
<style type="text/css">
	.st0{fill-rule:evenodd;clip-rule:evenodd;fill:#3D3D3B;}
</style>
<g id="Page-1">
	<g id="CARIAD.LOGO.RGB.L.NEGATIVE">
		<path id="Fill-4" class="st0" d="M0.8,17c0-9.2,7.3-16.7,16.3-16.7c5.3,0,10.1,2.6,13,6.7l-1.4,1.2c-2.6-3.7-6.8-6.1-11.6-6.1
			C9.1,2.1,2.7,8.8,2.7,17c0,8.2,6.5,14.9,14.4,14.9c4.8,0,9-2.4,11.6-6.1l1.4,1.2c-3,4.1-7.7,6.7-13,6.7C8.1,33.7,0.8,26.2,0.8,17"
			/>
		<polygon id="Fill-5" class="st0" points="166.6,32.8 168.5,32.8 168.5,1.2 166.6,1.2 		"/>
		<polygon id="Fill-29" class="st0" points="206.8,24 219.5,24 219.5,22.2 206.8,22.2 		"/>
		<polyline id="Fill-30" class="st0" points="214.1,1 214.1,1 212.1,1 212.1,1 212.1,1 198.7,32.3 200.4,33 213.1,3.4 225.9,33 
			227.6,32.3 214.1,1 214.1,1 		"/>
		<polygon id="Fill-31" class="st0" points="64.8,24 77.5,24 77.5,22.2 64.8,22.2 		"/>
		<polyline id="Fill-32" class="st0" points="72.1,1 72.1,1 70.1,1 70.1,1 70.1,1 56.7,32.3 58.4,33 71.1,3.4 83.9,33 85.6,32.3 
			72.1,1 72.1,1 		"/>
		<polygon id="Fill-33" class="st0" points="258.2,32.8 260,32.8 260,1.2 258.2,1.2 		"/>
		<path id="Fill-34" class="st0" d="M268.4,1.1h-6v1.9h6c7.7,0,13.9,6.3,13.9,13.9c0,7.7-6.3,13.9-13.9,13.9h-6v1.9h6
			c8.8,0,15.9-7.1,15.9-15.9C284.3,8.2,277.1,1.1,268.4,1.1"/>
		<polyline id="Fill-35" class="st0" points="126.4,19.8 134.2,33 135.8,32.1 128,18.9 126.4,19.8 		"/>
		<path id="Fill-36" class="st0" d="M125.2,15.4h-7.5V2.7h7c1.2,0,2.3,0.1,3.4,0.3c1.1,0.2,2,0.5,2.8,1c0.8,0.4,1.4,1.1,1.9,2
			c0.4,0.8,0.7,1.8,0.7,3.1c0,2.1-0.7,3.6-2.1,4.7C130,14.8,128,15.4,125.2,15.4z M132.3,15.3c0.9-0.6,1.7-1.5,2.2-2.5
			c0.6-1,0.9-2.3,0.9-3.9c0-1.6-0.3-3-0.9-4.1c-0.6-1-1.4-1.8-2.4-2.5c-0.9-0.6-2-1-3.2-1.2c-1.2-0.2-2.4-0.3-3.5-0.3h-9.4v31.7h1.8
			V17.1h7.3l1-0.1c1.1,0,2.2-0.2,3.2-0.4C130.3,16.4,131.3,15.9,132.3,15.3L132.3,15.3z"/>
	</g>
</g>
</svg>
