<?xml version="1.0" encoding="utf-8"?>
<!-- Generator: Adobe Illustrator 26.0.3, SVG Export Plug-In . SVG Version: 6.00 Build 0)  -->
<svg version="1.1" id="Layer_1" xmlns="http://www.w3.org/2000/svg" xmlns:xlink="http://www.w3.org/1999/xlink" x="0px" y="0px"
	 viewBox="0 0 168.3 37.4" style="enable-background:new 0 0 168.3 37.4;" xml:space="preserve">
<style type="text/css">
	.st0{fill:#3D3D3B;}
	.st1{fill:#FFFFFF;}
</style>
<g transform="translate(-0.363 -0.322)">
	<path class="st0" d="M85.3,37.7L101,4.1c0.1-0.3,0.5-0.6,0.8-0.5c0.4,0,0.7,0.2,0.8,0.5l15.7,33.6h3.5l-16.4-35
		c-1-2.1-3.4-2.9-5.5-2c-0.9,0.4-1.5,1.1-2,2l-16.3,35H85.3z"/>
	<path class="st0" d="M50.5,34.5c-0.5,0-0.9-0.4-0.9-0.9V0.3h-3.4v33.2c0,2.3,1.9,4.1,4.1,4.1h25.2v-3.4L50.5,34.5z"/>
	<path class="st0" d="M34.1,37.7h4L22.3,17.5L35.7,0.4h-4L5.2,34.2c-0.2,0.3-0.6,0.4-1,0.3c-0.4-0.1-0.6-0.5-0.6-0.8V0.3H0.4v33.4
		c0,1.7,1.1,3.3,2.7,3.8c0.4,0.1,0.9,0.2,1.3,0.2c1.2,0,2.4-0.6,3.2-1.6L20.3,20L34.1,37.7z"/>
	<rect x="131.2" y="0.3" class="st0" width="37.4" height="37.3"/>
	<path class="st1" d="M165.8,17.2h-14.1V3.1h-3.5v14.1h-14.1v3.5h14.1v14.1h3.5V20.7h14.1V17.2z"/>
</g>
</svg>
