<?xml version="1.0" encoding="utf-8"?>
<!-- Generator: Adobe Illustrator 25.2.3, SVG Export Plug-In . SVG Version: 6.00 Build 0)  -->
<svg version="1.1" id="Layer_1" xmlns="http://www.w3.org/2000/svg" xmlns:xlink="http://www.w3.org/1999/xlink" x="0px" y="0px"
	 viewBox="0 0 168 84.9" style="enable-background:new 0 0 168 84.9;" xml:space="preserve">
<style type="text/css">
	.st0{fill:#3D3D3B;}
</style>
<path class="st0" d="M126,76v0.9c-0.3-0.1-0.5-0.2-0.8-0.3c-0.3-0.1-0.5-0.1-0.8-0.1c-0.6,0-1,0.2-1.4,0.6c-0.3,0.4-0.5,0.9-0.5,1.6
	s0.2,1.2,0.5,1.6s0.8,0.6,1.4,0.6c0.3,0,0.5,0,0.8-0.1s0.5-0.2,0.8-0.3v0.8c-0.3,0.1-0.5,0.2-0.8,0.3c-0.3,0.1-0.6,0.1-0.9,0.1
	c-0.8,0-1.5-0.3-2-0.8s-0.7-1.2-0.7-2.1s0.2-1.6,0.7-2.1s1.2-0.8,2-0.8c0.3,0,0.6,0,0.8,0.1C125.4,75.8,125.7,75.8,126,76"/>
<path class="st0" d="M129.5,75.6c0.8,0,1.4,0.3,1.9,0.8s0.7,1.2,0.7,2.1s-0.2,1.6-0.7,2.1s-1.1,0.8-1.9,0.8c-0.8,0-1.4-0.3-1.9-0.8
	c-0.5-0.5-0.7-1.2-0.7-2.1s0.2-1.6,0.7-2.1C128.1,75.9,128.7,75.6,129.5,75.6 M129.5,76.4c-0.5,0-0.9,0.2-1.2,0.6s-0.4,0.9-0.4,1.6
	s0.1,1.2,0.4,1.6s0.7,0.6,1.2,0.6s0.9-0.2,1.2-0.6s0.4-0.9,0.4-1.6s-0.1-1.2-0.4-1.6C130.4,76.6,130,76.4,129.5,76.4"/>
<path class="st0" d="M137.6,76.8c0.2-0.4,0.5-0.7,0.8-0.9c0.3-0.2,0.7-0.3,1.1-0.3c0.6,0,1,0.2,1.3,0.6s0.5,1,0.5,1.7v3.3h-0.9V78
	c0-0.5-0.1-0.9-0.3-1.2c-0.2-0.3-0.5-0.4-0.9-0.4c-0.5,0-0.8,0.2-1.1,0.5s-0.4,0.7-0.4,1.3v3.1h-0.9V78c0-0.5-0.1-0.9-0.3-1.2
	c-0.2-0.3-0.5-0.4-0.9-0.4c-0.5,0-0.8,0.2-1.1,0.5s-0.4,0.7-0.4,1.3v3.1h-0.9v-5.5h0.9v0.9c0.2-0.3,0.5-0.6,0.7-0.8
	c0.3-0.2,0.6-0.2,1-0.2s0.7,0.1,1,0.3C137.3,76.1,137.5,76.4,137.6,76.8"/>
<path class="st0" d="M143.9,80.5v2.9H143v-7.6h0.9v0.8c0.2-0.3,0.4-0.6,0.7-0.7c0.3-0.2,0.6-0.2,1-0.2c0.7,0,1.2,0.3,1.6,0.8
	c0.4,0.5,0.6,1.2,0.6,2.1s-0.2,1.6-0.6,2.1c-0.4,0.5-1,0.8-1.6,0.8c-0.4,0-0.8-0.1-1-0.2C144.3,81,144.1,80.8,143.9,80.5 M147,78.5
	c0-0.7-0.1-1.2-0.4-1.6c-0.3-0.4-0.7-0.6-1.1-0.6c-0.5,0-0.9,0.2-1.1,0.6c-0.3,0.4-0.4,0.9-0.4,1.6s0.1,1.2,0.4,1.6
	c0.3,0.4,0.7,0.6,1.1,0.6c0.5,0,0.9-0.2,1.1-0.6C146.8,79.7,147,79.2,147,78.5"/>
<path class="st0" d="M153.6,78.1v3.2h-0.9v-0.8c-0.2,0.3-0.5,0.6-0.8,0.7c-0.3,0.2-0.7,0.2-1.1,0.2c-0.6,0-1-0.2-1.4-0.5
	c-0.3-0.3-0.5-0.7-0.5-1.3c0-0.6,0.2-1.1,0.6-1.4c0.4-0.3,1-0.5,1.9-0.5h1.3v-0.1c0-0.4-0.1-0.7-0.4-1c-0.3-0.2-0.7-0.3-1.2-0.3
	c-0.3,0-0.6,0-0.9,0.1c-0.3,0.1-0.6,0.2-0.9,0.3V76c0.3-0.1,0.7-0.2,1-0.3c0.3-0.1,0.6-0.1,0.9-0.1c0.8,0,1.4,0.2,1.8,0.6
	C153.4,76.7,153.6,77.3,153.6,78.1 M151.8,78.5c-0.7,0-1.2,0.1-1.5,0.3c-0.3,0.2-0.4,0.5-0.4,0.9c0,0.3,0.1,0.6,0.3,0.8
	c0.2,0.2,0.5,0.3,0.9,0.3c0.5,0,0.9-0.2,1.2-0.5c0.3-0.4,0.5-0.8,0.5-1.4v-0.2h-1V78.5z"/>
<path class="st0" d="M159.8,77.9v3.3h-0.9V78c0-0.5-0.1-0.9-0.3-1.2c-0.2-0.3-0.5-0.4-0.9-0.4c-0.5,0-0.9,0.2-1.2,0.5
	s-0.4,0.7-0.4,1.3v3.1h-0.9v-5.5h0.9v0.9c0.2-0.3,0.5-0.6,0.8-0.7c0.3-0.2,0.6-0.2,1-0.2c0.6,0,1.1,0.2,1.4,0.6
	C159.7,76.6,159.8,77.2,159.8,77.9"/>
<path class="st0" d="M163.8,81.8c-0.3,0.7-0.5,1.1-0.8,1.3c-0.2,0.2-0.6,0.3-1,0.3h-0.7v-0.8h0.5c0.3,0,0.4-0.1,0.6-0.2
	c0.1-0.1,0.3-0.4,0.5-0.8l0.2-0.4l-2.2-5.5h1l1.7,4.3l1.7-4.3h1L163.8,81.8z"/>
<path class="st0" d="M58.3,78.1v3.2h-0.9v-0.8c-0.2,0.3-0.5,0.6-0.8,0.7c-0.3,0.2-0.7,0.2-1.1,0.2c-0.6,0-1-0.2-1.4-0.5
	c-0.3-0.3-0.5-0.7-0.5-1.3c0-0.6,0.2-1.1,0.6-1.4c0.4-0.3,1-0.5,1.9-0.5h1.3v-0.1c0-0.4-0.1-0.7-0.4-1c-0.3-0.2-0.7-0.3-1.2-0.3
	c-0.3,0-0.6,0-0.9,0.1c-0.3,0.1-0.6,0.2-0.9,0.3V76c0.3-0.1,0.7-0.2,1-0.3c0.3-0.1,0.6-0.1,0.9-0.1c0.8,0,1.4,0.2,1.8,0.6
	C58.1,76.6,58.3,77.3,58.3,78.1 M56.5,78.5c-0.7,0-1.2,0.1-1.5,0.3c-0.3,0.2-0.4,0.5-0.4,0.9c0,0.3,0.1,0.6,0.3,0.8
	c0.2,0.2,0.5,0.3,0.9,0.3c0.5,0,0.9-0.2,1.2-0.5c0.3-0.4,0.5-0.8,0.5-1.4v-0.2h-1V78.5z"/>
<rect x="92.3" y="67.9" class="st0" width="3.3" height="13.4"/>
<path class="st0" d="M80.6,76.9c0,3.3,2.3,5,5.3,5s5.3-1.6,5.3-5.2c0-3-2-5-5.3-5C82.7,71.7,80.6,73.6,80.6,76.9 M85.8,73.6
	c1.2-0.1,2,1.3,2,3c0,2.3-0.8,3.3-2,3.3s-2-1-2-3.3C83.8,75.3,84.2,73.6,85.8,73.6"/>
<path class="st0" d="M103.7,75.7h-3.2C100.4,73.2,103.7,73.2,103.7,75.7 M102.2,79.5c-0.9,0-1.8-0.7-1.8-1.9h6.8
	c0.1-3.5-1.9-5.9-5.3-5.9c-2.9,0-5.1,2-5.1,5.1c0,3.2,2.2,5,5.1,5c2.1,0,4.3-0.8,4.9-3.2h-3.4C103.3,79.2,102.7,79.5,102.2,79.5"/>
<path class="st0" d="M72.5,81.3v-5.9c0-0.9,0.7-1.7,1.6-1.7s1.6,0.7,1.6,1.7v5.9h3.2v-7c-0.1-0.7-0.7-1.6-1.4-2.1
	c-1-0.5-3.3-1.1-5.2,1.1c-0.6-0.7-1.4-1.2-2.2-1.4c-1.4-0.3-2.9,0-3.9,1.1c-0.1,0.1-0.3,0.4-0.2,0.2V72h-3.2v9.3H66v-5.9
	c0-0.9,0.7-1.7,1.6-1.7s1.6,0.7,1.6,1.7v5.9H72.5z"/>
<path class="st0" d="M114.2,71.9l-1.5,2.3c-0.5-0.7-0.9-1.5-1.4-2.3h-3.7l2.9,4.3c0,0-2.1,3.3-3.3,5h3.2l1.8-3c0.3,0.4,1,1.8,1.7,3
	h3.5c-0.9-1.5-3-5-3-5c0.9-1.5,2-2.8,2.9-4.3H114.2z"/>
<rect x="55.7" y="1.5" class="st0" width="3.6" height="23.8"/>
<path class="st0" d="M1.7,5h18.6C22.5,5,24,6.1,24,8v13.7c0,2-1,3.6-3.6,3.6H9.5v-3.7h9.6c0.8,0,1.1-0.2,1.1-1V9.8
	c0-0.8-0.3-1.1-1-1.1H5.5v21H1.7V5z"/>
<rect x="48.3" y="8.7" class="st0" width="3.6" height="16.7"/>
<rect x="63.1" y="1.5" class="st0" width="3.6" height="23.8"/>
<rect x="70.5" y="8.7" class="st0" width="3.6" height="16.7"/>
<path class="st0" d="M27.7,1.6h3.9v7.1h11.1c1.9,0,2.7,1.4,2.7,2.9v13.7h-3.7V13.5c0-0.7-0.2-1.1-1-1.1h-9.1v12.9h-3.8V1.6H27.7z"/>
<path class="st0" d="M77.2,8.7h15.2c1.9,0,3,1.3,3,3.2v9.6c0,2.1-1.3,3.9-3.3,3.9h-6.9v-3.7h5c0.8,0,1.2-0.6,1.2-1.3v-6.6
	c0-0.7-0.4-1.3-1.1-1.3h-9.4v45.1L77,56.3V8.7H77.2z"/>
<path class="st0" d="M116.1,8.7v3.7h-12.5c-0.5,0-1.1,0.3-1.1,0.7V14c0,0.8,0.4,1,1.1,1h9.5c2,0,3.3,1,3.3,2.6V22
	c-0.1,1.8-1.5,3.3-3.2,3.3H98.7v-3.7h12.8c0.5,0,0.9-0.3,0.9-0.7v-1.3c0-0.5-0.5-0.8-0.9-0.8h-9.7c-1.7,0-3.2-1.5-3.2-3.1V12
	c0-1.4,1.4-3.3,3.2-3.3H116.1z"/>
<path class="st0" d="M30.4,37.8h3.7v23.6v1.3h-4v-1.3v-18L19.9,54c-0.4,0.4-0.9,0.8-1.5,0.8h-1.1c-0.6,0-1.1-0.4-1.5-0.8L5.7,43.4
	v17.9c0,0.1,0,1.3,0,1.3H1.6c-0.1,0,0-1.3,0-1.3l0.1-23.6h3.9c0,0,8.4,8.8,12.2,12.9C21.6,46.6,30.4,37.8,30.4,37.8"/>
<path class="st0" d="M55.5,52.4H40.7v2.5h16.9v3.4H39.4c-1.2,0-2.1-0.9-2.1-2.1V41.4c0,0,0.9,0,2.1,0h16.1c1.1,0,2.1,0.9,2.1,2.1
	v6.8C57.6,51.5,56.7,52.4,55.5,52.4 M54.3,44.8H40.7v4.5h13.5L54.3,44.8L54.3,44.8z"/>
<path class="st0" d="M164.5,52.6h-14.8v2.5h16.9v3.4h-18.1c-1.2,0-2.1-0.9-2.1-2.1V41.6c0,0,0.9,0,2.1,0h16.1c1.1,0,2.1,0.9,2.1,2.1
	v6.8C166.6,51.7,165.6,52.6,164.5,52.6 M163.2,45h-13.5v4.5h13.5V45z"/>
<path class="st0" d="M81,34.1v23.6c0,0.4-0.3,0.7-0.7,0.7H62.8c-1.2,0-2.1-0.9-2.1-2.1V43.5c0-1.1,0.9-2.1,2.1-2.1h14.8V34
	C77.6,34,81,34,81,34.1 M64.1,54.9h13.5V44.8H64.1V54.9z"/>
<path class="st0" d="M142.6,54.9c0,0,0,0.3,0,0.7v2c0,0.4,0,0.7,0,0.7h-18.2c-1.2,0-2.1-0.9-2.1-2.1v-1c4.7-3.4,9.5-6.9,14.2-10.4
	h-14.2v-3.4h18.2c1.1,0,2.1,0.9,2.1,2.1v1c-4.8,3.5-9.7,7-14.5,10.4H142.6z"/>
<path class="st0" d="M110.7,41.6v3.8H98.2c-0.5,0-1.1,0.3-1.1,0.7V47c0,0.8,0.5,1,1.1,1h9.6c2,0,3.3,1,3.3,2.6V55
	c-0.1,1.9-1.5,3.3-3.3,3.3H93.2v-3.8h12.9c0.5,0,0.9-0.3,0.9-0.7v-1.3c0-0.5-0.5-0.8-0.9-0.8h-9.8c-1.7,0-3.2-1.5-3.2-3.1V45
	c0-1.5,1.5-3.3,3.3-3.3h14.3V41.6z"/>
<rect x="84.9" y="41.5" class="st0" width="3.6" height="16.8"/>
<rect x="115.3" y="41.5" class="st0" width="3.6" height="16.8"/>
</svg>
