<?xml version="1.0" encoding="utf-8"?>
<!-- Generator: Adobe Illustrator 26.0.3, SVG Export Plug-In . SVG Version: 6.00 Build 0)  -->
<svg version="1.1" id="Layer_1" xmlns="http://www.w3.org/2000/svg" xmlns:xlink="http://www.w3.org/1999/xlink" x="0px" y="0px"
	 viewBox="0 0 1050 650" style="enable-background:new 0 0 1050 650;" xml:space="preserve">
<style type="text/css">
	.st0{fill:#3D3D3B;}
</style>
<g id="Logo_and_Copy">
	<g>
		<path class="st0" d="M49.4,537.1v71.7H29.7v-71.7H2.2v-18.2h74.5v18.2H49.4z M103.3,608.8v-89.9h67.9v17.7H123v18.2h42.4v17.7H123
			v18.9h48.9v17.7h-68.6L103.3,608.8L103.3,608.8z M243.7,610.4c-26.5,0-46.2-20.5-46.2-46.3v-0.2c0-25.6,19.3-46.5,46.9-46.5
			c17,0,27.1,5.6,35.5,13.9l-12.6,14.5c-7-6.3-14.1-10.1-23.1-10.1c-15.2,0-26.1,12.6-26.1,28v0.2c0,15.4,10.7,28.3,26.1,28.3
			c10.2,0,16.6-4.2,23.6-10.6l12.6,12.7C271.4,604.2,261,610.4,243.7,610.4z M364.5,608.8v-36.1h-36.5v36.1h-19.8v-89.9h19.8v35.6
			h36.5v-35.6h19.8v89.9L364.5,608.8L364.5,608.8z M482.5,608.8l-43.6-57.2v57.2h-19.6v-89.9h18.2l42.2,55.4v-55.4h19.6v89.9
			L482.5,608.8L482.5,608.8z M575.8,610.4c-27.8,0-47.7-20.7-47.7-46.3v-0.2c0-25.6,20.2-46.5,48-46.5s47.7,20.7,47.7,46.3v0.2
			C623.7,589.5,603.6,610.4,575.8,610.4z M603,563.8c0-15.4-11.3-28.3-27.2-28.3c-16,0-27,12.6-27,28v0.2
			c0,15.4,11.3,28.3,27.2,28.3c15.8,0,27-12.6,27-28V563.8z M652.2,608.8v-89.9h19.8v72h44.9v18H652.2z M783.6,610.4
			c-27.8,0-47.7-20.7-47.7-46.3v-0.2c0-25.6,20.2-46.5,48-46.5s47.7,20.7,47.7,46.3v0.2C831.5,589.5,811.3,610.4,783.6,610.4z
			 M810.8,563.8c0-15.4-11.3-28.3-27.2-28.3c-16,0-27,12.6-27,28v0.2c0,15.4,11.3,28.3,27.2,28.3s27-12.6,27-28V563.8z M902.7,610.4
			c-28,0-47.3-19.7-47.3-46.3v-0.2c0-25.6,19.9-46.5,47.2-46.5c16.2,0,26,4.4,35.3,12.4l-12.5,15.1c-7-5.7-13.2-9.1-23.5-9.1
			c-14.4,0-25.9,12.7-25.9,28v0.2c0,16.4,11.3,28.6,27.2,28.6c7.2,0,13.6-1.8,18.7-5.4v-12.8h-19.9v-17.1h39.1v39.1
			C931.9,604,919.2,610.4,902.7,610.4z M1013.1,572.9v35.9h-19.8v-35.5l-34.6-54.5h23.2l21.5,36.1l21.8-36.1h22.5L1013.1,572.9z"/>
		<path class="st0" d="M347.9,272.9c-2.4,15.9-6.9,31.4-13.9,46.7c-10.3,23.4-24.7,45.9-44.1,64.8c-36.4,36.9-90.8,60.3-146.5,60.3
			H2.7v-80.9h140.6c33.3,0,65.2-12.6,86.8-35.1c15.6-15.9,26.5-35.2,32.1-55.6L347.9,272.9L347.9,272.9z M347.9,211.1
			c-2.4-15.9-6.9-31.4-13.9-46.7c-10.3-23.4-24.7-45.9-44.1-64.8c-36.4-36.9-90.8-60.3-146.6-60.3H2.7v80.9h140.6
			c33.3,0,65.2,12.6,86.8,35.1c15.6,15.9,26.5,35.2,32.1,55.6C262.3,211.1,347.9,211.1,347.9,211.1z M524.5,309.3L417.1,444.5H310.5
			l160.9-202.5L310.6,39.5h106.6l107.5,135.1L632,39.5h106.6l-161,202.6l160.9,202.5H631.9L524.5,309.3z M786.8,272.9
			c5.6,20.5,16.5,39.8,32.2,55.6c21.6,22.5,53.5,35.1,86.8,35.1h140.6v81H905.8c-55.8,0-110.2-23.4-146.5-60.3
			c-19.3-18.9-33.7-41.4-44.1-64.8c-7.1-15.3-11.6-30.8-13.9-46.7L786.8,272.9L786.8,272.9z M786.8,211.1
			c5.6-20.5,16.5-39.8,32.2-55.7c21.6-22.5,53.5-35.1,86.8-35.1h140.6V39.5H905.8c-55.8,0-110.2,23.4-146.5,60.3
			c-19.3,18.9-33.7,41.4-44.1,64.8c-7.1,15.3-11.6,30.8-13.9,46.7L786.8,211.1L786.8,211.1z"/>
	</g>
</g>
</svg>
