<?xml version="1.0" encoding="utf-8"?>
<!-- Generator: Adobe Illustrator 26.0.3, SVG Export Plug-In . SVG Version: 6.00 Build 0)  -->
<svg version="1.1" id="Layer_1" xmlns="http://www.w3.org/2000/svg" xmlns:xlink="http://www.w3.org/1999/xlink" x="0px" y="0px"
	 viewBox="0 0 220 83.6" style="enable-background:new 0 0 220 83.6;" xml:space="preserve">
<style type="text/css">
	.st0{fill:#3D3D3B;}
</style>
<path class="st0" d="M77.4,10.3h10.5V0L77.4,1.9V10.3z"/>
<path class="st0" d="M115.6,15.2c-11.5,0.3-20.7,9.8-20.4,21.3c0.2,11.2,9.2,20.2,20.4,20.4c5.6,0,11-2.2,14.9-6.2l-6.8-6.8
	c-4.3,4.5-11.4,4.6-15.9,0.3c-4.5-4.3-4.6-11.4-0.3-15.9c4.3-4.5,11.4-4.6,15.9-0.3c0.1,0.1,0.2,0.2,0.3,0.3l6.8-6.8
	C126.5,17.4,121.2,15.1,115.6,15.2z"/>
<path class="st0" d="M20.9,15.2C9.3,15.2,0,24.5,0,36s9.3,20.9,20.9,20.9S41.7,47.6,41.7,36c0,0,0,0,0,0
	C41.7,24.5,32.4,15.2,20.9,15.2z M20.9,47.2c-6.2,0-11.2-5-11.2-11.2c0-6.2,5-11.2,11.2-11.2c6.2,0,11.2,5,11.2,11.2
	C32.1,42.2,27.1,47.2,20.9,47.2z"/>
<path class="st0" d="M48.4,7v34.6c0,13.8,11.8,15.3,16.9,15.3c1,0,2.1-0.1,3.1-0.2l0.2,0v-9h-2.1c-6.9,0-7.6-5.1-7.6-7.2V25.6h9.7
	v-9h-9.7V5.1L48.4,7z"/>
<path class="st0" d="M154,15.2c-11.5,0-20.9,9.3-20.9,20.9s9.3,20.9,20.9,20.9s20.9-9.3,20.9-20.9c0,0,0,0,0,0
	C174.8,24.5,165.5,15.2,154,15.2z M154,47.2c-6.2,0-11.2-5-11.2-11.2s5-11.2,11.2-11.2c6.2,0,11.2,5,11.2,11.2
	C165.2,42.2,160.2,47.2,154,47.2z"/>
<path class="st0" d="M77.4,56.5h10.5V16.6H77.4V56.5z"/>
<path class="st0" d="M209.5,56.5H220V30.2c0-7.5-6.1-13.7-13.7-13.7h-24.7v39.9h10.5V25.6h11.6c3.2,0,5.8,2.6,5.8,5.8V56.5z"/>
<path class="st0" d="M3,67.8h1.4v12.8H3V67.8z"/>
<path class="st0" d="M7.6,68.1h1.6v1.5H7.6V68.1z M7.7,71.6H9v9.1H7.7V71.6z"/>
<path class="st0" d="M12.7,72.8h-1.2v-1.2h1.2v-0.8c-0.1-0.9,0.2-1.7,0.8-2.3c0.5-0.5,1.3-0.7,2-0.7c0.5,0,1,0.1,1.5,0.2v1.2
	c-0.4-0.1-0.9-0.2-1.4-0.2c-1,0-1.6,0.6-1.6,1.9v0.7h2.9v1.2H14v7.9h-1.3V72.8z"/>
<path class="st0" d="M17.9,76.2L17.9,76.2c-0.1-2.5,1.8-4.6,4.3-4.7c0,0,0.1,0,0.1,0c2.7,0,4.2,2.2,4.2,4.8c0,0.1,0,0.3,0,0.4h-7.2
	c0,1.7,1.5,3.1,3.2,3.1c1.1,0,2.1-0.5,2.9-1.3l0.9,0.8c-0.9,1.1-2.3,1.7-3.8,1.7c-2.5,0-4.5-2-4.5-4.5
	C17.9,76.3,17.9,76.3,17.9,76.2z M25.1,75.6C25,74,24,72.6,22.2,72.6c-1.7,0.1-3,1.4-3,3.1H25.1z"/>
<path class="st0" d="M28.5,74.7h4.9v1.4h-4.9V74.7z"/>
<path class="st0" d="M35.5,76.2L35.5,76.2c0-2.6,2-4.8,4.7-4.8c1.4,0,2.7,0.6,3.6,1.6l-0.9,1c-0.7-0.8-1.7-1.3-2.8-1.4
	c-1.9,0.1-3.3,1.6-3.3,3.5c0,0,0,0,0,0.1l0,0c-0.1,1.9,1.4,3.5,3.3,3.5c0,0,0.1,0,0.1,0c1.1,0,2.1-0.5,2.8-1.3l0.9,0.8
	c-1.6,2-4.6,2.3-6.6,0.7C36.1,79,35.5,77.6,35.5,76.2L35.5,76.2z"/>
<path class="st0" d="M46.1,67.8h1.3v5.3c0.6-1.1,1.8-1.8,3.1-1.8c1.8-0.1,3.4,1.3,3.5,3.2c0,0.2,0,0.3,0,0.5v5.6h-1.3v-5.3
	c0.2-1.3-0.8-2.5-2.1-2.7c-0.1,0-0.3,0-0.4,0c-1.5,0-2.7,1.1-2.7,2.6c0,0.1,0,0.2,0,0.2v5.2h-1.3V67.8z"/>
<path class="st0" d="M56.2,78.1L56.2,78.1c0-1.9,1.6-2.9,3.9-2.9c0.9,0,1.9,0.1,2.8,0.4v-0.3c0-1.6-1-2.5-2.7-2.5
	c-1,0-1.9,0.2-2.8,0.7L57,72.3c1-0.5,2.2-0.8,3.3-0.8c1.1-0.1,2.1,0.3,2.9,1c0.7,0.7,1,1.7,0.9,2.7v5.6h-1.3v-1.4
	c-0.8,1-2,1.6-3.3,1.6C58,80.9,56.2,79.9,56.2,78.1z M62.9,77.4v-0.9c-0.9-0.3-1.8-0.4-2.7-0.4c-1.7,0-2.7,0.7-2.7,1.9l0,0
	c0,1.2,1.1,1.8,2.3,1.8C61.6,79.8,62.9,78.8,62.9,77.4z"/>
<path class="st0" d="M67.1,71.6h1.4v1.6c0.6-1.1,1.8-1.8,3.1-1.8c1.8-0.1,3.4,1.3,3.5,3.1c0,0.2,0,0.3,0,0.5v5.6h-1.4v-5.3
	c0.2-1.3-0.8-2.5-2.1-2.7c-0.1,0-0.3,0-0.4,0c-1.5,0-2.7,1.1-2.7,2.6c0,0.1,0,0.2,0,0.2v5.2h-1.4V71.6z"/>
<path class="st0" d="M77.8,82.3l0.6-1.1c1,0.8,2.3,1.2,3.5,1.2c1.6,0.2,3.1-1,3.3-2.7c0-0.2,0-0.4,0-0.6v-1.1
	c-0.8,1.2-2.2,1.9-3.6,1.9c-2.3,0-4.2-1.8-4.3-4.1c0,0,0-0.1,0-0.1l0,0c0-2.3,1.8-4.3,4.2-4.3c0,0,0.1,0,0.1,0
	c1.4,0,2.7,0.7,3.6,1.8v-1.7h1.3v7.5c0.1,1.2-0.4,2.3-1.2,3.2c-0.9,0.8-2.2,1.3-3.4,1.2C80.5,83.6,79.1,83.1,77.8,82.3z M85.3,75.7
	L85.3,75.7c0-1.8-1.5-3.1-3.2-3.1c0,0,0,0-0.1,0c-1.7-0.1-3.1,1.2-3.1,2.8c0,0.1,0,0.1,0,0.2l0,0c0,1.7,1.3,3.1,3,3.1
	c0,0,0.1,0,0.1,0C83.8,78.8,85.2,77.5,85.3,75.7z"/>
<path class="st0" d="M89.7,68.1h1.5v1.5h-1.5V68.1z M89.8,71.6h1.4v9.1h-1.4V71.6z"/>
<path class="st0" d="M94.3,71.6h1.3v1.6c0.6-1.1,1.8-1.8,3.1-1.8c1.8-0.1,3.4,1.3,3.5,3.2c0,0.2,0,0.3,0,0.5v5.6h-1.4v-5.3
	c0-1.7-0.9-2.7-2.5-2.7c-1.5,0-2.7,1.1-2.7,2.6c0,0.1,0,0.2,0,0.2v5.2h-1.3V71.6z"/>
<path class="st0" d="M105,82.3l0.6-1.1c1,0.8,2.2,1.2,3.5,1.2c1.6,0.2,3.1-1,3.3-2.7c0-0.2,0-0.4,0-0.6v-1.1
	c-0.8,1.2-2.1,1.9-3.6,1.9c-2.3,0-4.2-1.8-4.3-4.1c0,0,0-0.1,0-0.1l0,0c0-2.4,1.9-4.3,4.3-4.3c1.4,0,2.7,0.7,3.5,1.8v-1.7h1.4v7.5
	c0.1,1.2-0.4,2.3-1.2,3.2c-0.9,0.8-2.2,1.3-3.5,1.2C107.6,83.6,106.2,83.1,105,82.3z M112.5,75.7L112.5,75.7
	c-0.1-1.8-1.5-3.1-3.3-3.1c0,0,0,0-0.1,0c-1.7-0.1-3.1,1.2-3.1,2.9c0,0.1,0,0.1,0,0.2l0,0c0,1.7,1.4,3.1,3,3.1c0,0,0.1,0,0.1,0
	C110.9,78.8,112.4,77.5,112.5,75.7L112.5,75.7z"/>
<path class="st0" d="M121.1,78v-4.4H120v-2.3h1.1v-2.4h2.7v2.4h2.2v2.3h-2.2v4c0,0.6,0.3,0.9,0.9,0.9c0.5,0,0.9-0.1,1.3-0.3v2.2
	c-0.6,0.4-1.4,0.6-2.1,0.5C122.2,80.8,121.1,80.2,121.1,78z"/>
<path class="st0" d="M127.3,76L127.3,76c-0.1-2.6,1.9-4.8,4.5-4.9c0.1,0,0.1,0,0.2,0c3.1,0,4.6,2.4,4.6,5.1c0,0.2,0,0.4,0,0.7h-6.6
	c0.2,1.1,1.2,1.9,2.3,1.8c0.9,0,1.7-0.4,2.3-1l1.5,1.4c-1.8,2.1-5,2.3-7.1,0.4C127.9,78.7,127.3,77.4,127.3,76z M133.9,75.2
	c0-1.1-0.9-2-2-2c-1.1,0.1-1.9,0.9-2,2H133.9z"/>
<path class="st0" d="M138,76L138,76c0-2.7,2.1-4.9,4.8-4.9c0.1,0,0.2,0,0.2,0c1.4-0.1,2.8,0.5,3.8,1.6l-1.6,1.8
	c-0.5-0.6-1.3-1-2.1-1c-1.3,0.1-2.4,1.2-2.3,2.5c0,0,0,0,0,0.1l0,0c-0.1,1.3,0.9,2.5,2.2,2.6c0.1,0,0.1,0,0.2,0c0.8,0,1.6-0.4,2.2-1
	l1.6,1.6c-0.9,1.1-2.3,1.8-3.8,1.7c-2.7,0.1-4.9-2-5-4.6C138,76.2,138,76.1,138,76z"/>
<path class="st0" d="M148.6,67.8h2.7v4.8c0.6-0.9,1.7-1.5,2.8-1.5c2,0,3.2,1.3,3.2,3.5v6.1h-2.7v-5.3c0-1.3-0.6-1.9-1.6-1.9
	s-1.7,0.7-1.7,1.9v5.3h-2.7L148.6,67.8z"/>
<path class="st0" d="M159.5,71.3h2.7v1.3c0.6-0.9,1.6-1.5,2.8-1.5c2,0,3.2,1.3,3.2,3.5v6.1h-2.7v-5.3c0-1.3-0.6-1.9-1.6-1.9
	s-1.7,0.7-1.7,1.9v5.3h-2.7V71.3z"/>
<path class="st0" d="M170,76L170,76c0-2.8,2.3-5,5.1-4.9c0,0,0,0,0,0c2.7-0.1,5,2,5.1,4.7c0,0.1,0,0.1,0,0.2l0,0
	c0,2.8-2.3,5.1-5.1,5.1C172.3,81.1,170,78.8,170,76z M177.6,76L177.6,76c0.1-1.4-1-2.6-2.4-2.6c0,0,0,0-0.1,0
	c-1.3,0-2.4,1.1-2.4,2.4c0,0.1,0,0.2,0,0.2l0,0c-0.1,1.4,1,2.5,2.4,2.6c0,0,0.1,0,0.1,0c1.3,0,2.4-1,2.4-2.4
	C177.6,76.2,177.6,76.1,177.6,76L177.6,76z"/>
<path class="st0" d="M182.3,67.8h2.7v12.8h-2.7V67.8z"/>
<path class="st0" d="M187,76L187,76c0.1-2.8,2.5-5,5.3-4.9c2.6,0.1,4.8,2.2,4.9,4.9l0,0c-0.1,2.8-2.5,5-5.3,4.9
	C189.2,80.8,187.1,78.6,187,76z M194.6,76L194.6,76c0-1.4-1-2.6-2.4-2.6c0,0,0,0-0.1,0c-1.3,0-2.4,1-2.5,2.4c0,0.1,0,0.2,0,0.2l0,0
	c-0.1,1.4,1,2.5,2.4,2.6c0,0,0.1,0,0.1,0c1.3,0,2.4-1,2.5-2.4C194.6,76.1,194.6,76.1,194.6,76z"/>
<path class="st0" d="M199.2,82.6l0.9-2c1,0.6,2.1,0.9,3.2,0.9c1.8,0,2.7-0.9,2.7-2.6v-0.5c-0.7,1-1.9,1.6-3.1,1.5
	c-2.3,0-4.2-1.8-4.2-4.1c0-0.1,0-0.2,0-0.3l0,0c-0.1-2.3,1.6-4.3,3.9-4.4c0.1,0,0.2,0,0.3,0c1.2,0,2.3,0.5,3,1.4v-1.3h2.7v7.3
	c0.1,1.3-0.3,2.7-1.2,3.7c-1.1,0.9-2.6,1.4-4.1,1.3C201.9,83.5,200.5,83.2,199.2,82.6z M206,75.6L206,75.6c-0.1-1.3-1.2-2.2-2.4-2.1
	c-1.2,0.1-2.1,1-2.1,2.1l0,0c0.1,1.3,1.2,2.2,2.4,2.1C205,77.6,205.9,76.7,206,75.6z"/>
<path class="st0" d="M217.2,71.3h2.8l-3.6,9.7c-0.7,1.9-1.5,2.6-3.1,2.6c-0.8,0-1.7-0.2-2.4-0.7l0.9-1.9c0.3,0.2,0.7,0.3,1.1,0.4
	c0.4,0,0.8-0.2,0.9-0.6l-3.7-9.5h2.8l2.1,6.4L217.2,71.3z"/>
</svg>
